<?xml version="1.0" encoding="utf-8"?>
<svg width="75.03901672363281" height="72.79800415039062" viewBox="233.434 269.418 75.039 72.798" xmlns="http://www.w3.org/2000/svg" xmlns:bx="https://boxy-svg.com">
  <defs>
    <linearGradient id="gradient-13" gradientUnits="userSpaceOnUse" x1="241.989" y1="4.207" x2="241.989" y2="69.426" gradientTransform="matrix(1, 0, 0, 1, -0.000041, -0.000003)">
      <stop offset="0" style="stop-color: rgb(237, 220, 140);"/>
      <stop offset="1" style="stop-color: rgb(234, 200, 51);"/>
    </linearGradient>
    <linearGradient id="gradient-14" gradientUnits="userSpaceOnUse" x1="241.989" y1="4.207" x2="241.989" y2="69.426" gradientTransform="matrix(1, 0, 0, 1, -2.534947, -3.361069)">
      <stop offset="0" style="stop-color: rgb(237, 220, 140);"/>
      <stop offset="1" style="stop-color: rgb(234, 200, 51);"/>
    </linearGradient>
    <linearGradient id="gradient-15" gradientUnits="userSpaceOnUse" x1="241.989" y1="4.207" x2="241.989" y2="69.426" gradientTransform="matrix(1, 0, 0, 1, -3.941112, -5.470269)">
      <stop offset="0" style="stop-color: rgb(237, 220, 140);"/>
      <stop offset="1" style="stop-color: rgb(234, 200, 51);"/>
    </linearGradient>
    <linearGradient id="gradient-16" gradientUnits="userSpaceOnUse" x1="241.989" y1="4.207" x2="241.989" y2="69.426" gradientTransform="matrix(1, 0, 0, 1, -5.347331, -6.173336)">
      <stop offset="0" style="stop-color: rgb(237, 220, 140);"/>
      <stop offset="1" style="stop-color: rgb(234, 200, 51);"/>
    </linearGradient>
    <linearGradient id="gradient-17" gradientUnits="userSpaceOnUse" x1="241.989" y1="4.207" x2="241.989" y2="69.426" gradientTransform="matrix(1, 0, 0, 1, -8.159474, -7.57947)">
      <stop offset="0" style="stop-color: rgb(237, 220, 140);"/>
      <stop offset="1" style="stop-color: rgb(234, 200, 51);"/>
    </linearGradient>
  </defs>
  <g transform="matrix(1, 0, 0, 1, 33.04414367675781, 272.78991699218756)">
    <path d="M 220.471 5.333 C 208.549 6.043 211.537 59.352 217.659 58.766 C 234.929 57.112 264.954 69.426 269.686 57.36 C 275.429 42.716 272.498 10.254 272.498 10.254 C 272.571 10.399 239.384 4.207 220.471 5.333 Z" style="stroke: black; fill: url(#gradient-13);" bx:origin="0.5 0.5"/>
    <path d="M 217.936 1.972 C 206.014 2.682 209.002 55.991 215.124 55.405 C 232.394 53.751 262.419 66.065 267.151 53.999 C 272.894 39.355 269.963 6.893 269.963 6.893 C 270.036 7.038 236.849 0.846 217.936 1.972 Z" style="stroke: black; fill: url(#gradient-14);" bx:origin="0.5 0.5"/>
    <path d="M 216.53 -0.137 C 204.608 0.573 207.596 53.882 213.718 53.296 C 230.988 51.642 261.013 63.956 265.745 51.89 C 271.488 37.246 268.557 4.784 268.557 4.784 C 268.63 4.929 235.443 -1.263 216.53 -0.137 Z" style="stroke: black; fill: url(#gradient-15);" bx:origin="0.5 0.5"/>
    <path d="M 215.124 -0.84 C 203.202 -0.13 206.19 53.179 212.312 52.593 C 229.582 50.939 259.607 63.253 264.339 51.187 C 270.082 36.543 267.151 4.081 267.151 4.081 C 267.224 4.226 234.037 -1.966 215.124 -0.84 Z" style="stroke: black; fill: url(#gradient-16);" bx:origin="0.5 0.5"/>
    <path d="M 212.312 -2.246 C 200.39 -1.536 203.378 51.773 209.5 51.187 C 226.77 49.533 256.795 61.847 261.527 49.781 C 267.27 35.137 264.339 2.675 264.339 2.675 C 264.412 2.82 231.225 -3.372 212.312 -2.246 Z" style="stroke: black; fill: url(#gradient-17);" bx:origin="0.5 0.5"/>
  </g>
</svg>