<?xml version="1.0" encoding="utf-8"?>
<svg width="74.83578491210938" height="68.73565673828125" viewBox="402.673 271.532 74.8358 68.7357" xmlns="http://www.w3.org/2000/svg" xmlns:bx="https://boxy-svg.com">
  <defs>
    <linearGradient id="gradient-4" gradientUnits="userSpaceOnUse" x1="439.359" y1="275.325" x2="439.359" y2="336.751" spreadMethod="repeat" gradientTransform="matrix(0.791354, 0, 0, 0.791354, 90.462835, 67.787211)">
      <stop offset="0" style="stop-color: rgb(191, 68, 61);"/>
      <stop offset="1" style="stop-color: rgb(148, 22, 22);"/>
    </linearGradient>
  </defs>
  <path d="M 452.879 290.97 C 453.975 291.58 454.399 294.296 454.095 294.228 C 450.73 293.471 430.104 289.178 423.356 295.942 C 422.256 297.044 440.895 294.558 442.018 295.635 C 448.538 301.892 448.128 295.977 450.086 298.841 C 450.953 300.107 450.825 302.278 449.82 303.437 C 444.312 309.779 424.947 308.82 425.038 312.233 C 425.28 321.4 446.657 307.875 451.808 305.884 C 452.969 305.436 456.784 314.911 455.786 315.904 C 449.03 322.627 441.833 321.29 433.681 326.229 C 429.093 329.009 432.512 329.006 437.353 329.213 C 447.471 329.644 450.134 321.433 459.457 325.389 C 460.129 325.674 461.062 327.992 460.146 328.582 C 451.315 334.276 431.292 331.878 431.081 331.813 C 427.86 330.82 422.737 326.169 425.038 323.706 C 428.137 320.389 459.226 316.019 450.738 311.927 C 446.313 309.794 429.884 321.01 422.974 317.051 C 420.559 315.668 417.438 314.671 419.455 311.467 C 424.008 304.239 441.737 310.013 445.155 301.677 C 445.419 301.033 444.78 300.157 444.16 299.842 C 437.063 296.239 429.909 303.233 422.64 303.428 C 421.751 303.452 417.945 304.522 416.931 302.902 C 415.239 300.201 418.195 296.179 420.297 293.953 C 427.782 286.021 443.349 285.666 452.879 290.97 Z" style="stroke: black; fill: url(#gradient-4);" bx:origin="0.5 0.5"/>
</svg>