<?xml version="1.0" encoding="utf-8"?>
<svg width="83.58001708984375" height="72.18099975585938" viewBox="315.393 267.14 83.58 72.181" xmlns="http://www.w3.org/2000/svg" xmlns:bx="https://boxy-svg.com">
  <defs>
    <linearGradient id="gradient-10" gradientUnits="userSpaceOnUse" x1="268.21" y1="24.814" x2="268.21" y2="107.244" spreadMethod="pad" gradientTransform="matrix(0.741714, -0.295726, 0.204317, 0.512451, 46.150106, 99.35313)">
      <stop offset="0" style="stop-color: rgb(151, 230, 136);"/>
      <stop offset="1" style="stop-color: rgb(95, 210, 41);"/>
    </linearGradient>
    <linearGradient id="gradient-12" gradientUnits="userSpaceOnUse" x1="268.21" y1="24.814" x2="268.21" y2="107.244" spreadMethod="pad" gradientTransform="matrix(0.741714, -0.295726, 0.204317, 0.512451, 43.398914, 96.921922)">
      <stop offset="0" style="stop-color: rgb(151, 230, 136);"/>
      <stop offset="1" style="stop-color: rgb(95, 210, 41);"/>
    </linearGradient>
    <linearGradient id="gradient-18" gradientUnits="userSpaceOnUse" x1="268.21" y1="24.814" x2="268.21" y2="107.244" spreadMethod="pad" gradientTransform="matrix(0.741714, -0.295726, 0.204317, 0.512451, 40.030477, 94.114952)">
      <stop offset="0" style="stop-color: rgb(151, 230, 136);"/>
      <stop offset="1" style="stop-color: rgb(95, 210, 41);"/>
    </linearGradient>
    <linearGradient id="gradient-19" gradientUnits="userSpaceOnUse" x1="268.21" y1="24.814" x2="268.21" y2="107.244" spreadMethod="pad" gradientTransform="matrix(0.741714, -0.295725, 0.204317, 0.512451, 45.083047, 92.992137)">
      <stop offset="0" style="stop-color: rgb(151, 230, 136);"/>
      <stop offset="1" style="stop-color: rgb(95, 210, 41);"/>
    </linearGradient>
  </defs>
  <g transform="matrix(1, 0, 0, 1, 103.35081481933594, 250.29177856445315)">
    <path d="M 231.124 48.635 C 231.124 48.635 226.513 42.22 228.316 39.653 C 230.792 36.127 241.229 39.092 241.229 39.092 C 241.229 39.092 246.139 34.649 248.527 32.355 C 251.389 29.605 253.045 23.209 256.948 23.934 C 261.694 24.815 262.597 30.141 266.197 34.923 C 266.983 35.969 269.518 43.014 270.421 43.582 C 274.068 45.874 274.915 33.39 278.842 35.161 C 285.235 38.046 295.622 48.916 292.877 55.371 C 290.972 59.849 280.931 51.292 278.28 55.371 C 276.271 58.462 284.781 62.386 282.772 65.477 C 280.528 68.929 272.585 61.975 270.421 65.477 C 267.561 70.104 280.83 75.611 277.719 80.073 C 274.812 84.243 262.561 78.389 262.561 78.389 C 262.561 78.389 265.265 86.085 262.561 87.371 C 259.078 89.029 253.579 80.073 253.579 80.073 L 242.913 86.81 C 242.913 86.81 248.757 80.125 246.843 77.266 C 244.552 73.845 234.492 77.266 234.492 77.266 C 234.492 77.266 239.379 73.335 238.422 71.091 C 235.8 64.947 219.659 73.781 218.772 67.161 C 218.162 62.599 231.124 60.986 231.124 60.986 C 231.124 60.986 222.529 52.55 224.948 48.635 C 226.03 46.884 231.124 48.635 231.124 48.635 Z" style="stroke: black; fill: url(#gradient-10);" bx:origin="0.5 0.5"/>
    <path d="M 228.373 46.204 C 228.373 46.204 223.762 39.789 225.565 37.222 C 228.041 33.695 238.478 36.66 238.478 36.66 C 238.478 36.66 243.388 32.217 245.776 29.923 C 248.639 27.173 250.294 20.777 254.197 21.502 C 258.943 22.384 259.846 27.71 263.446 32.491 C 264.232 33.537 266.768 40.582 267.671 41.15 C 271.317 43.443 272.164 30.958 276.091 32.73 C 282.484 35.615 292.871 46.485 290.126 52.94 C 288.222 57.417 278.18 48.86 275.529 52.94 C 273.52 56.031 282.03 59.955 280.021 63.046 C 277.777 66.498 269.835 59.543 267.67 63.046 C 264.81 67.673 278.079 73.179 274.968 77.641 C 272.061 81.811 259.81 75.957 259.81 75.957 C 259.81 75.957 262.514 83.653 259.81 84.94 C 256.327 86.597 250.828 77.641 250.828 77.641 L 240.162 84.378 C 240.162 84.378 246.006 77.693 244.092 74.835 C 241.801 71.414 231.741 74.835 231.741 74.835 C 231.741 74.835 236.628 70.904 235.671 68.659 C 233.05 62.515 216.908 71.35 216.022 64.73 C 215.411 60.167 228.373 58.554 228.373 58.554 C 228.373 58.554 219.778 50.119 222.197 46.204 C 223.279 44.453 228.373 46.204 228.373 46.204 Z" style="stroke: black; fill: url(#gradient-12);" bx:origin="0.5 0.5"/>
    <path d="M 225.004 43.397 C 225.004 43.397 220.393 36.982 222.196 34.415 C 224.673 30.889 235.109 33.854 235.109 33.854 C 235.109 33.854 240.02 29.411 242.407 27.117 C 245.27 24.367 246.925 17.971 250.828 18.696 C 255.574 19.577 256.477 24.903 260.077 29.685 C 260.863 30.731 263.399 37.776 264.302 38.343 C 267.949 40.636 268.795 28.151 272.722 29.923 C 279.115 32.808 289.502 43.678 286.757 50.133 C 284.853 54.61 274.812 46.054 272.161 50.133 C 270.152 53.224 278.661 57.148 276.652 60.239 C 274.408 63.691 266.466 56.737 264.301 60.239 C 261.442 64.866 274.71 70.373 271.599 74.835 C 268.692 79.004 256.441 73.151 256.441 73.151 C 256.441 73.151 259.145 80.847 256.441 82.133 C 252.958 83.791 247.459 74.835 247.459 74.835 L 236.793 81.572 C 236.793 81.572 242.637 74.887 240.723 72.028 C 238.432 68.607 228.372 72.028 228.372 72.028 C 228.372 72.028 233.26 68.097 232.302 65.852 C 229.681 59.709 213.539 68.543 212.653 61.923 C 212.042 57.36 225.004 55.747 225.004 55.747 C 225.004 55.747 216.409 47.312 218.828 43.397 C 219.91 41.646 225.004 43.397 225.004 43.397 Z" style="stroke: black; fill: url(#gradient-18);" bx:origin="0.5 0.5"/>
    <path d="M 230.057 42.274 C 230.057 42.274 225.446 35.859 227.249 33.292 C 229.725 29.766 240.162 32.731 240.162 32.731 C 240.162 32.731 245.072 28.288 247.46 25.994 C 250.323 23.244 251.978 16.848 255.881 17.573 C 260.627 18.455 261.53 23.781 265.13 28.562 C 265.916 29.608 268.452 36.653 269.355 37.221 C 273.001 39.513 273.848 27.029 277.775 28.801 C 284.168 31.686 294.555 42.556 291.81 49.011 C 289.906 53.488 279.864 44.931 277.213 49.011 C 275.204 52.102 283.714 56.025 281.705 59.116 C 279.461 62.568 271.519 55.614 269.354 59.116 C 266.494 63.744 279.763 69.25 276.652 73.712 C 273.745 77.882 261.494 72.028 261.494 72.028 C 261.494 72.028 264.198 79.724 261.494 81.01 C 258.011 82.668 252.512 73.712 252.512 73.712 L 241.846 80.449 C 241.846 80.449 247.69 73.764 245.776 70.905 C 243.485 67.485 233.425 70.905 233.425 70.905 C 233.425 70.905 238.312 66.974 237.355 64.73 C 234.734 58.586 218.592 67.421 217.706 60.8 C 217.095 56.238 230.057 54.625 230.057 54.625 C 230.057 54.625 221.462 46.189 223.881 42.274 C 224.963 40.523 230.057 42.274 230.057 42.274 Z" style="stroke: black; fill: url(#gradient-19);" bx:origin="0.5 0.5"/>
  </g>
</svg>