<?xml version="1.0" encoding="utf-8"?>
<svg width="83.58001708984375" height="72.18099975585938" viewBox="315.393 267.14 83.58 72.181" xmlns="http://www.w3.org/2000/svg" xmlns:bx="https://boxy-svg.com">
  <defs>
    <linearGradient id="gradient-10" gradientUnits="userSpaceOnUse" x1="268.21" y1="24.814" x2="268.21" y2="107.244" spreadMethod="pad" gradientTransform="matrix(0.741714, -0.295726, 0.204317, 0.512451, 46.150106, 99.35313)">
      <stop offset="0" style="stop-color: rgb(151, 230, 136);"/>
      <stop offset="1" style="stop-color: rgb(95, 210, 41);"/>
    </linearGradient>
  </defs>
  <path d="M 231.124 48.635 C 231.124 48.635 226.513 42.22 228.316 39.653 C 230.792 36.127 241.229 39.092 241.229 39.092 C 241.229 39.092 246.139 34.649 248.527 32.355 C 251.389 29.605 253.045 23.209 256.948 23.934 C 261.694 24.815 262.597 30.141 266.197 34.923 C 266.983 35.969 269.518 43.014 270.421 43.582 C 274.068 45.874 274.915 33.39 278.842 35.161 C 285.235 38.046 295.622 48.916 292.877 55.371 C 290.972 59.849 280.931 51.292 278.28 55.371 C 276.271 58.462 284.781 62.386 282.772 65.477 C 280.528 68.929 272.585 61.975 270.421 65.477 C 267.561 70.104 280.83 75.611 277.719 80.073 C 274.812 84.243 262.561 78.389 262.561 78.389 C 262.561 78.389 265.265 86.085 262.561 87.371 C 259.078 89.029 253.579 80.073 253.579 80.073 L 242.913 86.81 C 242.913 86.81 248.757 80.125 246.843 77.266 C 244.552 73.845 234.492 77.266 234.492 77.266 C 234.492 77.266 239.379 73.335 238.422 71.091 C 235.8 64.947 219.659 73.781 218.772 67.161 C 218.162 62.599 231.124 60.986 231.124 60.986 C 231.124 60.986 222.529 52.55 224.948 48.635 C 226.03 46.884 231.124 48.635 231.124 48.635 Z" style="stroke: black; fill: url(#gradient-10);" transform="matrix(0.9999999999999999, 0, 0, 0.9999999999999999, 103.35081481933597, 250.29177856445307)" bx:origin="0.5 0.5"/>
</svg>