<?xml version="1.0" encoding="utf-8"?>
<svg width="74.83578491210938" height="68.73565673828125" viewBox="402.673 271.532 74.8358 68.7357" xmlns="http://www.w3.org/2000/svg" xmlns:bx="https://boxy-svg.com">
  <defs>
    <linearGradient id="gradient-4" gradientUnits="userSpaceOnUse" x1="439.359" y1="275.325" x2="439.359" y2="336.751" spreadMethod="repeat" gradientTransform="matrix(0.791354, 0, 0, 0.791354, 87.659948, 63.631205)">
      <stop offset="0" style="stop-color: rgb(241, 241, 232);"/>
      <stop offset="1" style="stop-color: rgb(255, 254, 215);"/>
    </linearGradient>
  </defs>
  <path d="M 450.076 286.814 C 451.172 287.424 451.596 290.14 451.292 290.072 C 447.927 289.315 427.301 285.022 420.553 291.786 C 419.453 292.888 438.092 290.402 439.215 291.479 C 445.735 297.736 445.325 291.821 447.283 294.685 C 448.15 295.951 448.022 298.122 447.017 299.281 C 441.509 305.623 422.144 304.664 422.235 308.077 C 422.477 317.244 443.854 303.719 449.005 301.728 C 450.166 301.28 453.981 310.755 452.983 311.748 C 446.227 318.471 439.03 317.134 430.878 322.073 C 426.29 324.853 429.709 324.85 434.55 325.057 C 444.668 325.488 447.331 317.277 456.654 321.233 C 457.326 321.518 458.259 323.836 457.343 324.426 C 448.512 330.12 428.489 327.722 428.278 327.657 C 425.057 326.664 419.934 322.013 422.235 319.55 C 425.334 316.233 456.423 311.863 447.935 307.771 C 443.51 305.638 427.081 316.854 420.171 312.895 C 417.756 311.512 414.635 310.515 416.652 307.311 C 421.205 300.083 438.934 305.857 442.352 297.521 C 442.616 296.877 441.977 296.001 441.357 295.686 C 434.26 292.083 427.106 299.077 419.837 299.272 C 418.948 299.296 415.142 300.366 414.128 298.746 C 412.436 296.045 415.392 292.023 417.494 289.797 C 424.979 281.865 440.546 281.51 450.076 286.814 Z" style="stroke: black; fill: url(#gradient-4);" transform="matrix(-0.8191520626515352, 0.573576448899196, -0.573576448899196, -0.8191520626515352, 967.3715603471109, 306.61892930032593)" bx:origin="0.5 0.5"/>
</svg>