<?xml version="1.0" encoding="utf-8"?>
<svg width="57.90545654296875" height="59.485260009765625" viewBox="407.787 339.739 57.9055 59.4853" xmlns="http://www.w3.org/2000/svg" xmlns:bx="https://boxy-svg.com">
  <defs>
    <linearGradient id="gradient-46" gradientUnits="userSpaceOnUse" x1="236.606" y1="33.174" x2="236.606" y2="104.11" gradientTransform="matrix(0.999958, -0.61429, 0.575075, 0.727609, 259.817342, 622.867885)">
      <stop style="stop-color: rgb(243, 227, 124);" offset="0"/>
      <stop style="stop-color: rgb(220, 213, 23);" offset="1"/>
    </linearGradient>
    <linearGradient id="gradient-47" gradientUnits="userSpaceOnUse" x1="236.606" y1="33.174" x2="236.606" y2="104.11" gradientTransform="matrix(0.820464, -0.571699, 0.471841, 0.67716, 297.373264, 610.083264)">
      <stop style="stop-color: rgb(237, 234, 131);" offset="0"/>
      <stop style="stop-color: rgb(221, 207, 25);" offset="1"/>
    </linearGradient>
    <linearGradient id="gradient-48" gradientUnits="userSpaceOnUse" x1="236.606" y1="33.174" x2="236.606" y2="104.11" gradientTransform="matrix(0.518153, -0.361048, 0.297985, 0.427651, 383.222898, 578.121815)">
      <stop style="stop-color: rgb(226, 213, 114);" offset="0"/>
      <stop style="stop-color: rgb(220, 212, 23);" offset="1"/>
    </linearGradient>
    <linearGradient id="gradient-49" gradientUnits="userSpaceOnUse" x1="236.606" y1="33.174" x2="236.606" y2="104.11" gradientTransform="matrix(0.518153, -0.361046, 0.297985, 0.42765, 379.699339, 573.573406)">
      <stop style="stop-color: rgb(255, 251, 184);" offset="0"/>
      <stop style="stop-color: rgb(221, 206, 26);" offset="1"/>
    </linearGradient>
    <linearGradient id="gradient-50" gradientUnits="userSpaceOnUse" x1="236.606" y1="33.174" x2="236.606" y2="104.11" gradientTransform="matrix(0.178057, -0.119693, 0.102393, 0.141772, 473.959042, 533.721834)">
      <stop style="stop-color: rgb(241, 227, 101);" offset="0"/>
      <stop style="stop-color: rgb(221, 208, 25);" offset="1"/>
    </linearGradient>
  </defs>
  <path d="M 508.345 507.749 C 529.471 496.183 517.526 479.405 540.685 495.905 C 556.708 507.318 578.399 531.551 571.68 539.929 C 555.029 560.692 544.915 572.361 521.06 558.07 C 500.916 546 480.858 522.797 508.345 507.749 Z" style="stroke: black; fill: url(#gradient-46); stroke-width: 1.6213;" transform="matrix(0.5936521291732787, 0, 0, 0.6399289965629578, 122.32418823242186, 32.95404052734375)" bx:origin="0.5 0.5"/>
  <path d="M 501.29 502.945 C 514.521 486.296 525.445 482.305 544.448 497.661 C 557.594 508.282 563.018 519.099 553.255 532.894 C 539.586 552.213 522.625 553.241 503.052 539.94 C 486.523 528.707 488.855 518.59 501.29 502.945 Z" style="stroke: black; fill: url(#gradient-47); stroke-width: 1.6213;" transform="matrix(0.5936521291732787, 0, 0, 0.6399289965629578, 122.32418823242186, 32.95404052734375)" bx:origin="0.5 0.5"/>
  <path d="M 512.003 510.461 C 520.359 499.946 527.258 497.426 539.26 507.124 C 547.563 513.831 550.987 520.663 544.823 529.375 C 536.19 541.576 525.477 542.225 513.117 533.825 C 502.679 526.731 504.152 520.341 512.003 510.461 Z" style="stroke: black; fill: url(#gradient-48); stroke-width: 1.6213;" transform="matrix(0.5936521291732787, 0, 0, 0.6399289965629578, 122.32418823242186, 32.95404052734375)" bx:origin="0.5 0.5"/>
  <path d="M 508.48 505.913 C 516.836 495.398 523.734 492.878 535.737 502.576 C 544.039 509.283 547.462 516.115 541.299 524.827 C 532.665 537.028 521.953 537.677 509.593 529.277 C 499.154 522.183 500.627 515.793 508.48 505.913 Z" style="stroke: black; fill: url(#gradient-49); stroke-width: 1.6213;" transform="matrix(0.5936521291732787, 0, 0, 0.6399289965629578, 122.32418823242186, 32.95404052734375)" bx:origin="0.5 0.5"/>
  <path d="M 518.211 511.29 C 521.083 507.804 523.453 506.969 527.578 510.184 C 530.432 512.407 531.609 514.673 529.49 517.561 C 526.523 521.606 522.841 521.821 518.594 519.037 C 515.008 516.684 515.513 514.566 518.211 511.29 Z" style="stroke: black; fill: url(#gradient-50); stroke-width: 1.6213;" transform="matrix(0.5936521291732787, 0, 0, 0.6399289965629578, 122.32418823242186, 32.95404052734375)" bx:origin="0.5 0.5"/>
</svg>