<?xml version="1.0" encoding="utf-8"?>
<svg width="60.17718505859375" height="63.537200927734375" viewBox="491.623 271.772 60.1772 63.5372" xmlns="http://www.w3.org/2000/svg" xmlns:bx="https://boxy-svg.com">
  <defs>
    <linearGradient id="gradient-32" gradientUnits="userSpaceOnUse" x1="222.348" y1="-84.561" x2="222.348" y2="23.645" spreadMethod="pad" gradientTransform="matrix(-0.707407, 0.706806, -0.721221, -0.721833, 345.956705, -122.810236)">
      <stop offset="0" style="stop-color: rgb(216, 108, 92);"/>
      <stop offset="1" style="stop-color: rgb(237, 83, 83);"/>
    </linearGradient>
  </defs>
  <g transform="matrix(0.437178, 0, 0, 0.499694, 424.77243, 273.297974)">
    <path d="M 164.226 66.5 C 157.276 48.211 179.069 25.166 197.27 17.988 C 222.076 8.205 259.034 14.444 275.31 35.565 C 287.191 50.982 274.704 82.231 259.14 93.919 C 229.187 116.411 177.532 101.514 164.226 66.5 Z" style="stroke: black; fill: url(#gradient-32); stroke-width: 2.13476;" bx:origin="0.5 0.5"/>
    <path d="M 178.536 62.82 C 173.091 48.765 190.166 31.055 204.427 25.539 C 223.863 18.021 252.821 22.816 265.574 39.047 C 274.883 50.895 260.961 74.65 248.766 83.632 C 225.297 100.917 188.962 89.728 178.536 62.82 Z" style="stroke: black; fill: none; stroke-width: 2.13476;" bx:origin="0.5 0.5"/>
    <path d="M 179.693 64.39 L 200.082 59.469 L 186.724 35.565 L 195.864 29.94 L 215.55 49.626 L 235.939 23.612 L 247.891 26.425 L 232.423 46.814 L 251.406 42.595 L 259.14 32.752 L 266.874 41.189 L 259.14 46.814 L 233.126 53.844 L 247.188 62.984 L 247.891 80.561 L 241.563 88.295 L 235.939 69.312 L 226.096 59.469 L 221.174 77.046 L 213.441 89.701 L 201.488 84.076 L 215.55 65.797 L 209.925 65.093 L 188.834 79.155 L 179.693 64.39 Z" style="stroke: black; fill: none; stroke-width: 2.13476;" bx:origin="0.5 0.5"/>
  </g>
</svg>